# xmcd CD database file
#
# Track frame offsets:
#	150
#	42235
#	87342
#	149472
#	183452
#	205812
#	253450
#
# Disc length: 3897 seconds
#
# Revision: 0
# Processed by: cddbd v1.5PL3 Copyright (c) Steve Scherf et al.
# Submitted via: CDex 1.51
#
DISCID=680f3707
DTITLE=Greg Osby - Greg Osby
DYEAR=2004
DGENRE=Jazz
TTITLE0=Rising Sign
TTITLE1=Summertime
TTITLE2=Visitation
TTITLE3=Bernie's Tune
TTITLE4=Equalatogram
TTITLE5=Shaw Nuff
TTITLE6=Love Man
EXTD=YEAR: 2004
EXTT0=
EXTT1=
EXTT2=
EXTT3=
EXTT4=
EXTT5=
EXTT6=
PLAYORDER=
